<svg width="30" height="30" viewBox="0 0 30 30" fill="none" xmlns="http://www.w3.org/2000/svg">
<rect width="30" height="30" rx="15" fill="#F2F4F6"/>
<path fill-rule="evenodd" clip-rule="evenodd" d="M15 20C13.6193 20 12.3693 19.4404 11.4645 18.5355L13.8333 16.1667L10.1368 16.1667H8.09678H8V22L10.0503 19.9497C11.317 21.2165 13.067 22 15 22C18.4685 22 21.3478 19.4773 21.9032 16.1667H19.8632C19.3376 18.3654 17.3597 20 15 20ZM22 13.8333H21.9032H19.8632H16.1667L18.5355 11.4645C17.6307 10.5596 16.3807 10 15 10C12.6403 10 10.6624 11.6346 10.1368 13.8333H8.09678C8.65221 10.5227 11.5315 8 15 8C16.933 8 18.683 8.7835 19.9497 10.0503L22 8V13.8333Z" fill="#011C4D"/>
</svg>
