<svg width="5" height="8" viewBox="0 0 5 8" fill="none" xmlns="http://www.w3.org/2000/svg">
<path fill-rule="evenodd" clip-rule="evenodd" d="M0 1C0 0.447715 0.447715 0 1 0C1.55228 0 2 0.447715 2 1C2 1.55228 1.55228 2 1 2C0.447715 2 0 1.55228 0 1ZM1 3C0.447715 3 0 3.44772 0 4C0 4.55228 0.447715 5 1 5C1.55228 5 2 4.55228 2 4C2 3.44772 1.55228 3 1 3ZM4 3C3.44772 3 3 3.44772 3 4C3 4.55228 3.44772 5 4 5C4.55228 5 5 4.55228 5 4C5 3.44772 4.55228 3 4 3ZM0 7C0 6.44772 0.447715 6 1 6C1.55228 6 2 6.44772 2 7C2 7.55228 1.55228 8 1 8C0.447715 8 0 7.55228 0 7ZM4 6C3.44772 6 3 6.44772 3 7C3 7.55228 3.44772 8 4 8C4.55228 8 5 7.55228 5 7C5 6.44772 4.55228 6 4 6ZM4 0C3.44772 0 3 0.447715 3 1C3 1.55228 3.44772 2 4 2C4.55228 2 5 1.55228 5 1C5 0.447715 4.55228 0 4 0Z" fill="#011C4D"/>
</svg>
