<svg width="16" height="16" viewBox="0 0 16 16" fill="none" xmlns="http://www.w3.org/2000/svg">
<rect x="-1.90735e-06" width="16" height="16" rx="8" fill="#494949"/>
<path d="M7.275 12.295C6.94566 12.243 6.64233 12.1477 6.365 12.009C6.08766 11.8617 5.84933 11.6797 5.65 11.463C5.45066 11.2377 5.29033 10.9777 5.169 10.683C5.05633 10.3797 5 10.0503 5 9.695H6.56C6.56 10.059 6.68133 10.358 6.924 10.592C7.16666 10.8173 7.50033 10.93 7.925 10.93C8.38433 10.93 8.72667 10.8347 8.952 10.644C9.17733 10.4447 9.29 10.215 9.29 9.955C9.29 9.70367 9.186 9.50867 8.978 9.37C8.77 9.23133 8.51 9.11 8.198 9.006C7.886 8.89333 7.54366 8.785 7.171 8.681C6.807 8.577 6.469 8.434 6.157 8.252C5.845 8.07 5.585 7.836 5.377 7.55C5.169 7.25533 5.065 6.86967 5.065 6.393C5.065 6.09833 5.117 5.82533 5.221 5.574C5.33366 5.314 5.48533 5.08433 5.676 4.885C5.87533 4.677 6.10933 4.508 6.378 4.378C6.64666 4.248 6.94566 4.157 7.275 4.105V3H8.705V4.105C8.98233 4.183 9.238 4.29567 9.472 4.443C9.71466 4.59033 9.92266 4.77233 10.096 4.989C10.2693 5.197 10.4037 5.43967 10.499 5.717C10.603 5.99433 10.655 6.302 10.655 6.64H9.16C9.16 6.276 9.05167 5.99 8.835 5.782C8.61833 5.574 8.315 5.47 7.925 5.47C7.535 5.47 7.23166 5.56533 7.015 5.756C6.79833 5.94667 6.69 6.15467 6.69 6.38C6.69 6.62267 6.794 6.809 7.002 6.939C7.21 7.069 7.47 7.186 7.782 7.29C8.094 7.394 8.432 7.50233 8.796 7.615C9.16866 7.72767 9.511 7.87933 9.823 8.07C10.135 8.26067 10.395 8.512 10.603 8.824C10.811 9.12733 10.915 9.526 10.915 10.02C10.915 10.28 10.8587 10.5357 10.746 10.787C10.6333 11.0297 10.4773 11.255 10.278 11.463C10.0787 11.6623 9.84467 11.8357 9.576 11.983C9.30733 12.1303 9.017 12.2343 8.705 12.295V13.4H7.275V12.295Z" fill="white"/>
</svg>
