<svg width="16" height="16" viewBox="0 0 16 16" fill="none" xmlns="http://www.w3.org/2000/svg">
<path fill-rule="evenodd" clip-rule="evenodd" d="M8 0C3.58172 0 0 3.58172 0 8C0 12.4183 3.58172 16 8 16C12.4183 16 16 12.4183 16 8C16 7.15638 15.8694 6.34326 15.6274 5.57974L10.0536 11.1536L9.7 11.5071L9.34645 11.1536L8.64645 10.4535L9.35355 9.74644L9.7 10.0929L15.2273 4.56555C15.0911 4.27936 14.9384 4.00253 14.7703 3.7363L7.35309 11.1536L6.99951 11.5071L6.64596 11.1535L3.70355 8.21067L4.41071 7.50362L6.99956 10.0929L14.1768 2.91563C12.7095 1.13514 10.4873 0 8 0Z" fill="#00BA77"/>
</svg>
